<svg xmlns="http://www.w3.org/2000/svg" data-name="Layer 2" viewBox="0 0 62 77.5" x="0px" y="0px"><title>hand gesture</title><path d="M54.22,27.19A4.09,4.09,0,0,0,50.16,24H27l3.13-2.74a5,5,0,0,0,.61-6.86l-.56-.7A2.92,2.92,0,0,0,26.33,13L14.8,20.13A16.35,16.35,0,0,0,6.3,34,16,16,0,0,0,21.9,50l.1,0H33.3a4,4,0,0,0,4-4,3.93,3.93,0,0,0-.69-2.24A4,4,0,0,0,39.3,40a3.93,3.93,0,0,0-.69-2.24A4,4,0,0,0,40.75,32H50.3a4,4,0,0,0,3.92-4.81Zm-2.5,2.22A2,2,0,0,1,50.3,30H30a1,1,0,0,0,0,2h7.3a2,2,0,0,1,0,4H30a1,1,0,0,0,0,2h5.3a2,2,0,0,1,0,4H30a1,1,0,0,0,0,2h3.3a2,2,0,0,1,0,4h-11a14,14,0,0,1-14-14,14.37,14.37,0,0,1,7.53-12.15l11.55-7.11a.93.93,0,0,1,1.2.21l.56.7a3,3,0,0,1-.37,4.11l-5.13,4.49A1,1,0,0,0,24.3,26H50.16a2.11,2.11,0,0,1,2.1,1.58A2,2,0,0,1,51.72,29.41Z"/><text x="0" y="77" fill="#000000" font-size="5px" font-weight="bold" font-family="'Helvetica Neue', Helvetica, Arial-Unicode, Arial, Sans-serif">Created by Ilham Fitrotul Hayat</text><text x="0" y="82" fill="#000000" font-size="5px" font-weight="bold" font-family="'Helvetica Neue', Helvetica, Arial-Unicode, Arial, Sans-serif">from the Noun Project</text></svg>